<svg width="41" height="50" viewBox="0 0 41 50" fill="none" xmlns="http://www.w3.org/2000/svg">
<path d="M5.99809 37.449C3.92263 38.2861 1.93018 39.0194 0.0553457 39.6697V46.1728C0.0553457 49.3483 2.2415 50.5867 4.8981 48.9401L30.0112 33.305C28.8282 33.3811 27.5345 33.4226 26.1024 33.4226C22.461 33.4084 18.8249 33.1426 15.2201 32.627C12.3157 34.5537 9.22078 36.1764 5.98426 37.4697L5.99809 37.449ZM0.0553457 37.02C1.65345 36.4528 3.33458 35.8232 5.09181 35.1175C7.28668 34.2449 9.41406 33.2113 11.4566 32.0251C10.6471 31.8798 9.81003 31.7207 8.96601 31.5408C5.94609 30.9187 2.96597 30.1171 0.0415093 29.1402L0.0553457 37.02ZM22.1936 27.4729C20.9414 28.4691 19.6823 29.4723 18.3402 30.4685C24.5666 31.1257 30.4263 31.0427 35.0131 30.2125L35.4213 30.1364L35.2829 30.0465C32.466 28.1289 29.8636 25.9139 27.5207 23.4396C25.6873 24.6918 23.9716 26.0547 22.1936 27.4729ZM29.6238 22.1044C31.9923 24.6105 34.6759 26.7988 37.6074 28.6144L38.915 27.7981C41.5785 26.1377 41.5716 23.4396 38.915 21.7861L35.1445 19.4616C33.2232 20.1724 31.3706 21.057 29.61 22.1044H29.6238ZM9.31884 17.7736C6.91821 19.2195 4.32388 20.7899 0 20.8591V26.5113C4.02894 27.906 8.16951 28.9544 12.3767 29.6452C13.1377 29.7767 13.9056 29.8943 14.6597 30.0119C16.832 28.5314 18.7484 27.0025 20.637 25.5012C22.2974 24.1798 23.937 22.8792 25.6942 21.6478C22.6502 18.6176 19.9383 16.1132 16.9289 15.4906C16.576 15.4906 16.237 15.4491 15.9188 15.4491C13.1515 15.4491 11.3666 16.5352 9.31884 17.7736V17.7736ZM0 3.46671V18.3478C3.65282 18.2648 5.86665 16.9296 8.03205 15.6289C10.488 14.1415 13.027 12.6126 17.1987 13.0069H17.3163C21.1974 13.8025 24.4351 16.8742 27.8112 20.2572C29.3184 19.3268 30.8906 18.506 32.5156 17.8012L4.84275 0.692505C4.18219 0.263294 3.41633 0.0239646 2.62892 0.000683572C1.06541 -0.0339075 0 1.24596 0 3.46671Z" fill="white"/>
</svg>
